<?xml version="1.0" encoding="utf-8"?>
<!-- Generator: Adobe Illustrator 16.0.4, SVG Export Plug-In . SVG Version: 6.00 Build 0)  -->
<!DOCTYPE svg PUBLIC "-//W3C//DTD SVG 1.1//EN" "http://www.w3.org/Graphics/SVG/1.1/DTD/svg11.dtd">
<svg version="1.1" id="Layer_1" xmlns="http://www.w3.org/2000/svg" xmlns:xlink="http://www.w3.org/1999/xlink" x="0px" y="0px"
	 width="149.039px" height="188.452px" viewBox="0 0 149.039 188.452" enable-background="new 0 0 149.039 188.452"
	 xml:space="preserve">
<path d="M143.884,0.829l-33.578,34.167c-1.178,1.178-2.945,1.178-4.124,0l0,0c-1.178-1.178-1.178-2.946,0-4.124l0,0L129.01,7.309
	c1.178-1.178,1.031-3.093-0.147-4.124c-1.178-1.031-3.093-1.031-4.124,0.147l0,0L94.695,34.701
	c-1.178,1.178-2.945,1.178-4.124,0.147l0,0c-1.178-1.178-1.178-2.945-0.147-4.124l9.867-10.309H30.338
	c-5.302,0-9.572,4.271-9.572,9.573v107.213l5.891-6.185c1.031-1.178,2.945-1.326,4.124-0.295c1.178,1.031,1.326,2.946,0.295,4.124
	l-0.147,0.147l-28.129,29.16c-1.178,1.178-1.178,3.093,0,4.124s3.093,1.178,4.124,0l20.913-21.354c1.178-1.178,2.945-1.178,4.124,0
	c1.178,1.178,1.178,2.945,0,4.124l0,0L0.884,183.445c-1.178,1.178-1.178,3.093,0,4.124c1.178,1.178,3.093,1.178,4.124,0
	l33.578-34.167c1.178-1.178,2.945-1.178,4.124,0c1.178,1.178,1.178,2.946,0,4.124l0,0l-22.68,23.563
	c-1.178,1.178-1.178,2.946,0,4.124l0,0c0.589,0.589,1.325,0.884,2.062,0.884s1.62-0.294,2.062-0.884l32.841-34.167
	c0.884-1.326,2.798-1.62,4.124-0.736c1.326,0.883,1.62,2.798,0.736,4.124c-0.147,0.294-0.294,0.442-0.589,0.589l-9.867,10.309
	h67.303c5.302,0,9.573-4.271,9.573-9.573l0,0V51.343l-5.891,6.038c-1.031,1.178-2.945,1.326-4.124,0.295
	c-1.178-1.031-1.325-2.946-0.294-4.124l0.147-0.147l28.129-29.16c1.178-1.178,1.178-3.093,0-4.124c-1.178-1.178-3.093-1.178-4.124,0
	l0,0l-21.06,21.207c-1.178,1.178-2.946,1.178-4.124,0c-1.178-1.178-1.178-2.945,0-4.124l0,0l31.221-32.252
	c1.178-1.178,1.178-3.093,0-4.124S145.062-0.349,143.884,0.829z M55.374,47.353h48.747c1.62,0,2.946,1.326,2.946,2.946
	c0,1.62-1.326,2.945-2.946,2.945H55.374c-1.62,0-2.945-1.326-2.945-2.945C52.429,48.679,53.754,47.353,55.374,47.353z
	 M96.401,137.246H43.825c-1.62,0-2.945-1.325-2.945-2.945s1.325-2.945,2.945-2.945h52.576c1.62,0,2.945,1.325,2.945,2.945
	S98.021,137.246,96.401,137.246z M98.083,87.13c0,0.147,0,0.147,0,0.294c-0.736,8.542-7.953,17.378-21.943,26.803
	c-1.031,0.589-2.209,0.589-3.24,0c-14.138-9.425-21.207-18.114-21.943-26.803c0-0.147,0-0.147,0-0.294v-2.209
	c0-0.147,0-0.147,0-0.295c0.736-8.542,6.627-12.959,11.929-13.401c0.736,0,1.473-0.147,2.209-0.147
	c3.534-0.147,6.921,1.178,9.572,3.535c2.504-2.356,6.038-3.682,9.425-3.535c0.589,0,1.326,0,2.062,0.147
	c5.302,0.442,11.34,4.86,11.929,13.401c0,0.147,0,0.147,0,0.295V87.13z"/>
</svg>
